<?xml version="1.0" encoding="utf-8" standalone="no"?>
<!DOCTYPE svg PUBLIC "-//W3C//DTD SVG 1.1//EN"
  "http://www.w3.org/Graphics/SVG/1.1/DTD/svg11.dtd">
<!-- Created with matplotlib (http://matplotlib.org/) -->
<svg height="228.76pt" version="1.1" viewBox="0 0 230.2 228.76" width="230.2pt" xmlns="http://www.w3.org/2000/svg" xmlns:xlink="http://www.w3.org/1999/xlink">
 <defs>
  <style type="text/css">
*{stroke-linecap:butt;stroke-linejoin:round;}
  </style>
 </defs>
 <g id="figure_1">
  <g id="patch_1">
   <path d="M 0 228.76 
L 230.2 228.76 
L 230.2 0 
L 0 0 
z
" style="fill:#ffffff;"/>
  </g>
  <g id="axes_1">
   <g id="patch_2">
    <path d="M 3.5 225.26 
L 226.7 225.26 
L 226.7 3.5 
L 3.5 3.5 
z
" style="fill:#ffffff;"/>
   </g>
   <g id="matplotlib.axis_1">
    <g id="xtick_1"/>
    <g id="xtick_2"/>
    <g id="xtick_3"/>
    <g id="xtick_4"/>
    <g id="xtick_5"/>
    <g id="xtick_6"/>
   </g>
   <g id="matplotlib.axis_2">
    <g id="ytick_1">
     <g id="line2d_1">
      <path clip-path="url(#p84c35bdba1)" d="M 3.5 216.506316 
L 226.7 216.506316 
" style="fill:none;stroke:#b0b0b0;stroke-linecap:square;stroke-width:0.8;"/>
     </g>
    </g>
    <g id="ytick_2">
     <g id="line2d_2">
      <path clip-path="url(#p84c35bdba1)" d="M 3.5 187.327368 
L 226.7 187.327368 
" style="fill:none;stroke:#b0b0b0;stroke-linecap:square;stroke-width:0.8;"/>
     </g>
    </g>
    <g id="ytick_3">
     <g id="line2d_3">
      <path clip-path="url(#p84c35bdba1)" d="M 3.5 158.148421 
L 226.7 158.148421 
" style="fill:none;stroke:#b0b0b0;stroke-linecap:square;stroke-width:0.8;"/>
     </g>
    </g>
    <g id="ytick_4">
     <g id="line2d_4">
      <path clip-path="url(#p84c35bdba1)" d="M 3.5 128.969474 
L 226.7 128.969474 
" style="fill:none;stroke:#b0b0b0;stroke-linecap:square;stroke-width:0.8;"/>
     </g>
    </g>
    <g id="ytick_5">
     <g id="line2d_5">
      <path clip-path="url(#p84c35bdba1)" d="M 3.5 99.790526 
L 226.7 99.790526 
" style="fill:none;stroke:#b0b0b0;stroke-linecap:square;stroke-width:0.8;"/>
     </g>
    </g>
    <g id="ytick_6">
     <g id="line2d_6">
      <path clip-path="url(#p84c35bdba1)" d="M 3.5 70.611579 
L 226.7 70.611579 
" style="fill:none;stroke:#b0b0b0;stroke-linecap:square;stroke-width:0.8;"/>
     </g>
    </g>
    <g id="ytick_7">
     <g id="line2d_7">
      <path clip-path="url(#p84c35bdba1)" d="M 3.5 41.432632 
L 226.7 41.432632 
" style="fill:none;stroke:#b0b0b0;stroke-linecap:square;stroke-width:0.8;"/>
     </g>
    </g>
    <g id="ytick_8">
     <g id="line2d_8">
      <path clip-path="url(#p84c35bdba1)" d="M 3.5 12.253684 
L 226.7 12.253684 
" style="fill:none;stroke:#b0b0b0;stroke-linecap:square;stroke-width:0.8;"/>
     </g>
    </g>
   </g>
   <g id="line2d_9">
    <path clip-path="url(#p84c35bdba1)" d="M 7.876471 122.754358 
L 8.314118 121.091158 
L 8.751765 117.297895 
L 9.189412 114.876042 
L 10.064706 112.512547 
L 10.502353 111.608 
L 10.94 114.088211 
L 11.377647 112.366653 
L 11.815294 102.474989 
L 12.252941 78.460716 
L 12.690588 47.326779 
L 13.128235 27.601811 
L 13.565882 13.508379 
L 14.441176 39.536 
L 14.878824 48.989979 
L 15.316471 48.056253 
L 15.754118 46.509768 
L 16.191765 49.135874 
L 16.629412 47.676926 
L 17.067059 47.764463 
L 17.504706 48.814905 
L 17.942353 48.056253 
L 18.817647 45.284253 
L 19.255294 45.809474 
L 19.692941 46.684842 
L 20.130588 44.350526 
L 20.568235 45.400968 
L 21.005882 45.663579 
L 21.443529 50.857432 
L 21.881176 47.735284 
L 22.318824 48.143789 
L 22.756471 45.780295 
L 23.194118 47.180884 
L 23.631765 49.5152 
L 24.069412 48.931621 
L 24.507059 49.077516 
L 24.944706 53.191747 
L 25.382353 52.345558 
L 25.82 50.361389 
L 26.257647 50.478105 
L 26.695294 50.740716 
L 27.132941 46.509768 
L 27.570588 50.682358 
L 28.445882 53.921221 
L 28.883529 53.658611 
L 29.321176 56.809937 
L 29.758824 56.605684 
L 30.634118 51.820337 
L 31.071765 52.433095 
L 31.509412 52.578989 
L 31.947059 56.664042 
L 32.384706 57.160084 
L 32.822353 64.104674 
L 33.26 61.624463 
L 33.697647 61.040884 
L 34.135294 62.003789 
L 34.572941 60.253053 
L 35.010588 63.083411 
L 35.448235 64.892505 
L 35.885882 67.401895 
L 36.761176 68.510695 
L 37.198824 73.237684 
L 37.636471 70.640758 
L 38.074118 73.587832 
L 38.511765 74.521558 
L 38.949412 79.306905 
L 39.387059 80.940926 
L 39.824706 84.617474 
L 40.262353 89.286105 
L 40.7 176.326905 
L 41.137647 207.5192 
L 41.575294 201.449979 
L 42.012941 182.454484 
L 42.450588 183.067242 
L 42.888235 180.120168 
L 43.325882 184.030147 
L 43.763529 178.865474 
L 44.201176 179.536589 
L 44.638824 183.971789 
L 45.076471 175.772505 
L 45.514118 176.356084 
L 45.951765 175.976758 
L 46.389412 177.931747 
L 46.827059 173.7008 
L 47.264706 172.183495 
L 47.702353 176.706232 
L 48.14 168.740379 
L 48.577647 170.111789 
L 49.015294 169.82 
L 49.452941 173.729979 
L 49.890588 170.316042 
L 50.328235 169.119705 
L 50.765882 172.271032 
L 51.203529 165.705768 
L 51.641176 167.368968 
L 52.078824 165.093011 
L 52.516471 161.562358 
L 52.954118 164.276 
L 53.391765 162.962947 
L 53.829412 166.230989 
L 54.267059 162.204295 
L 54.704706 162.437726 
L 55.142353 164.8304 
L 55.58 158.702821 
L 56.017647 160.862063 
L 56.455294 158.994611 
L 56.892941 161.591537 
L 57.330588 157.243874 
L 57.768235 158.119242 
L 58.205882 160.161768 
L 58.643529 153.363074 
L 59.081176 155.930821 
L 59.956471 154.267621 
L 60.394118 152.750316 
L 60.831765 152.341811 
L 61.269412 154.063368 
L 61.707059 150.124211 
L 62.144706 149.949137 
L 62.582353 150.270105 
L 63.02 147.964968 
L 63.457647 149.686526 
L 63.895294 149.190484 
L 64.332941 149.453095 
L 64.770588 145.513937 
L 65.208235 147.031242 
L 65.645882 149.015411 
L 66.083529 144.901179 
L 66.521176 147.585642 
L 66.958824 146.068337 
L 67.396471 149.190484 
L 67.834118 144.988716 
L 68.271765 146.972884 
L 68.709412 148.431832 
L 69.147059 144.638568 
L 69.584706 148.811158 
L 70.022353 146.009979 
L 70.46 150.211747 
L 70.897647 150.328463 
L 71.335294 149.540632 
L 71.772941 153.859116 
L 72.210588 151.087116 
L 72.648235 154.209263 
L 73.085882 153.917474 
L 73.523529 152.137558 
L 73.961176 155.989179 
L 74.398824 154.2968 
L 74.836471 156.193432 
L 75.274118 152.341811 
L 75.711765 153.713221 
L 76.149412 156.047537 
L 76.587059 150.532716 
L 77.024706 153.859116 
L 77.462353 153.392253 
L 77.9 156.718653 
L 78.337647 151.787411 
L 78.775294 152.808674 
L 79.212941 155.493137 
L 79.650588 149.336379 
L 80.088235 152.983747 
L 80.525882 151.583158 
L 80.963529 153.596505 
L 81.838824 151.262189 
L 82.276471 153.654863 
L 82.714118 148.986232 
L 83.151765 149.890779 
L 83.589412 147.381389 
L 84.027059 146.943705 
L 84.464706 149.073768 
L 84.902353 147.060421 
L 85.34 148.023326 
L 85.777647 143.967453 
L 86.215294 147.177137 
L 86.652941 143.529768 
L 87.090588 144.375958 
L 87.528235 144.463495 
L 87.965882 144.054989 
L 88.403529 144.346779 
L 88.841176 143.909095 
L 89.278824 145.134611 
L 89.716471 144.901179 
L 90.154118 144.872 
L 90.591765 145.105432 
L 91.029412 145.659832 
L 91.467059 145.076253 
L 91.904706 144.872 
L 92.342353 145.4264 
L 93.217647 144.813642 
L 94.092941 145.017895 
L 94.530588 143.7632 
L 94.968235 144.288421 
L 95.405882 144.580211 
L 95.843529 144.3176 
L 96.281176 144.463495 
L 96.718824 143.792379 
L 97.156471 144.025811 
L 97.594118 144.551032 
L 98.031765 144.025811 
L 98.469412 145.397221 
L 98.907059 144.755284 
L 99.344706 144.930358 
L 99.782353 144.930358 
L 100.22 144.054989 
L 100.657647 144.901179 
L 101.095294 144.054989 
L 101.532941 145.922442 
L 101.970588 143.354695 
L 102.408235 145.047074 
L 102.845882 144.901179 
L 103.283529 144.171705 
L 103.721176 145.047074 
L 104.158824 143.821558 
L 104.596471 145.047074 
L 105.471765 144.259242 
L 105.909412 144.842821 
L 106.347059 143.996632 
L 106.784706 145.280505 
L 107.222353 144.842821 
L 107.66 146.301768 
L 108.535294 147.702358 
L 108.972941 146.885347 
L 109.848235 148.285937 
L 110.285882 147.410568 
L 110.723529 148.140042 
L 111.161176 147.585642 
L 111.598824 148.665263 
L 112.036471 147.264674 
L 112.474118 147.877432 
L 112.911765 148.694442 
L 113.349412 146.651916 
L 113.787059 147.731537 
L 114.224706 146.272589 
L 114.662353 147.235495 
L 115.1 146.243411 
L 115.537647 145.893263 
L 115.975294 147.177137 
L 116.412941 146.009979 
L 116.850588 146.885347 
L 117.288235 145.572295 
L 117.725882 146.126695 
L 118.163529 145.017895 
L 118.601176 145.543116 
L 119.038824 145.776547 
L 119.476471 144.521853 
L 119.914118 144.901179 
L 120.351765 144.113347 
L 120.789412 144.142526 
L 121.227059 145.659832 
L 121.664706 144.375958 
L 122.102353 143.617305 
L 122.54 142.304253 
L 122.977647 142.304253 
L 123.852941 142.012463 
L 124.290588 142.596042 
L 124.728235 141.749853 
L 125.603529 140.874484 
L 126.041176 141.5456 
L 126.478824 140.699411 
L 126.916471 140.641053 
L 127.354118 140.932842 
L 127.791765 141.749853 
L 128.229412 140.9912 
L 128.667059 141.078737 
L 129.104706 141.458063 
L 129.542353 140.524337 
L 129.98 141.720674 
L 130.855294 142.187537 
L 131.292941 141.924926 
L 131.730588 141.399705 
L 132.168235 141.720674 
L 132.605882 140.874484 
L 133.043529 140.641053 
L 133.481176 141.5456 
L 133.918824 140.757768 
L 134.794118 141.895747 
L 135.231765 141.428884 
L 135.669412 141.458063 
L 136.107059 141.866568 
L 136.544706 141.954105 
L 136.982353 140.9912 
L 137.42 142.537684 
L 137.857647 141.691495 
L 138.295294 142.333432 
L 138.732941 141.720674 
L 139.170588 141.312168 
L 139.608235 141.866568 
L 140.045882 140.874484 
L 140.483529 141.516421 
L 140.921176 141.399705 
L 141.358824 141.954105 
L 141.796471 141.662316 
L 142.234118 140.495158 
L 142.671765 141.720674 
L 143.109412 140.320084 
L 143.547059 140.407621 
L 144.422353 138.248379 
L 144.86 138.481811 
L 145.297647 136.964505 
L 145.735294 137.752337 
L 146.172941 135.768168 
L 146.610588 135.884884 
L 147.048235 136.906147 
L 147.485882 135.476379 
L 147.923529 136.118316 
L 148.361176 136.380926 
L 148.798824 137.022863 
L 149.236471 135.797347 
L 149.674118 136.293389 
L 150.111765 135.914063 
L 150.549412 135.884884 
L 150.987059 136.147495 
L 151.424706 135.914063 
L 151.862353 136.410105 
L 152.3 135.563916 
L 152.737647 136.147495 
L 153.175294 135.884884 
L 153.612941 134.601011 
L 154.050588 134.8928 
L 154.925882 132.587663 
L 155.363529 132.325053 
L 155.801176 131.624758 
L 156.238824 130.165811 
L 157.114118 128.064926 
L 157.551765 125.993221 
L 157.989412 125.117853 
L 158.427059 123.279579 
L 158.864706 122.550105 
L 159.302353 118.844379 
L 159.74 116.510063 
L 160.177647 115.255368 
L 160.615294 113.329558 
L 161.052941 112.279116 
L 161.490588 111.987326 
L 161.928235 114.088211 
L 162.365882 112.249937 
L 162.803529 103.642147 
L 163.241176 81.699579 
L 163.678824 51.324295 
L 164.116471 32.357979 
L 164.554118 19.723495 
L 164.991765 20.978189 
L 165.429412 35.421768 
L 165.867059 44.642316 
L 166.304706 46.684842 
L 166.742353 44.554779 
L 167.18 44.175453 
L 167.617647 44.467242 
L 168.492941 47.210063 
L 168.930588 44.759032 
L 169.368235 47.735284 
L 169.805882 43.942021 
L 170.243529 45.430147 
L 170.681176 44.642316 
L 171.118824 46.655663 
L 171.556471 43.329263 
L 171.994118 45.050821 
L 172.431765 48.581474 
L 172.869412 45.955368 
L 173.307059 48.727368 
L 173.744706 48.348042 
L 174.182353 48.814905 
L 174.62 51.003326 
L 175.057647 50.653179 
L 175.495294 53.308463 
L 175.932941 51.382653 
L 176.370588 52.724884 
L 176.808235 53.191747 
L 177.245882 51.7328 
L 177.683529 53.541895 
L 178.121176 54.621516 
L 178.558824 56.051284 
L 178.996471 59.115074 
L 179.434118 61.186779 
L 179.871765 58.210526 
L 180.309412 58.764926 
L 180.747059 60.107158 
L 181.184706 57.451874 
L 181.622353 58.239705 
L 182.06 57.802021 
L 182.497647 62.324758 
L 182.935294 59.902905 
L 183.372941 63.025053 
L 183.810588 62.966695 
L 184.685882 62.499832 
L 185.123529 61.099242 
L 185.561176 64.338105 
L 185.998824 65.242653 
L 186.436471 68.3648 
L 186.874118 69.152632 
L 187.311765 67.985474 
L 187.749412 70.932547 
L 188.187059 65.213474 
L 188.624706 70.757474 
L 189.062353 69.852926 
L 189.937647 80.503242 
L 190.375294 81.466147 
L 190.812941 86.951789 
L 191.250588 87.477011 
L 191.688235 156.952084 
L 192.125882 207.490021 
L 192.563529 208.277853 
L 193.001176 191.558316 
L 193.438824 181.199789 
L 193.876471 184.351116 
L 194.314118 181.725011 
L 194.751765 185.605811 
L 195.189412 181.929263 
L 195.627059 182.162695 
L 196.502353 178.077642 
L 196.94 178.223537 
L 197.377647 171.979242 
L 198.252941 173.379832 
L 198.690588 173.058863 
L 199.128235 168.652842 
L 199.565882 166.960463 
L 200.003529 166.931284 
L 200.441176 164.567789 
L 200.878824 166.143453 
L 201.316471 164.859579 
L 201.754118 168.185979 
L 202.191765 162.466905 
L 202.629412 163.1672 
L 203.067059 165.180547 
L 203.504706 158.411032 
L 203.942353 162.175116 
L 204.38 160.190947 
L 204.817647 162.729516 
L 205.255294 157.564842 
L 205.692941 159.2864 
L 206.130588 158.732 
L 206.568235 153.684042 
L 207.005882 157.0688 
L 207.443529 154.180084 
L 207.881176 156.572758 
L 208.318824 153.7424 
L 208.756471 154.267621 
L 209.194118 151.845768 
L 209.631765 150.591074 
L 210.069412 152.370989 
L 210.507059 150.270105 
L 210.944706 150.912042 
L 211.382353 149.744884 
L 211.82 152.604421 
L 212.257647 149.394737 
L 212.695294 148.986232 
L 213.132941 149.365558 
L 213.570588 146.914526 
L 214.008235 148.606905 
L 214.445882 148.694442 
L 214.883529 150.124211 
L 215.321176 146.622737 
L 215.758824 147.031242 
L 216.196471 149.015411 
L 216.634118 143.967453 
L 217.071765 146.739453 
L 217.509412 145.455579 
L 217.947059 146.330947 
L 218.384706 144.084168 
L 219.26 145.280505 
L 219.697647 144.463495 
L 220.135294 144.755284 
L 220.572941 143.821558 
L 221.010588 145.747368 
L 221.885882 145.659832 
L 222.323529 144.726105 
L 222.761176 144.054989 
L 223.198824 144.463495 
L 223.636471 144.609389 
L 224.074118 144.580211 
L 224.511765 144.696926 
L 224.949412 144.492674 
L 225.387059 144.755284 
L 225.824706 144.346779 
L 226.262353 144.521853 
L 226.262353 144.521853 
" style="fill:none;stroke:#00008b;stroke-linecap:square;stroke-width:1.35;"/>
   </g>
   <g id="patch_3">
    <path d="M 3.5 225.26 
L 3.5 3.5 
" style="fill:none;stroke:#000000;stroke-linecap:square;stroke-linejoin:miter;stroke-width:0.8;"/>
   </g>
   <g id="patch_4">
    <path d="M 226.7 225.26 
L 226.7 3.5 
" style="fill:none;stroke:#000000;stroke-linecap:square;stroke-linejoin:miter;stroke-width:0.8;"/>
   </g>
   <g id="patch_5">
    <path d="M 3.5 225.26 
L 226.7 225.26 
" style="fill:none;stroke:#000000;stroke-linecap:square;stroke-linejoin:miter;stroke-width:0.8;"/>
   </g>
   <g id="patch_6">
    <path d="M 3.5 3.5 
L 226.7 3.5 
" style="fill:none;stroke:#000000;stroke-linecap:square;stroke-linejoin:miter;stroke-width:0.8;"/>
   </g>
  </g>
 </g>
 <defs>
  <clipPath id="p84c35bdba1">
   <rect height="221.76" width="223.2" x="3.5" y="3.5"/>
  </clipPath>
 </defs>
</svg>
