<?xml version="1.0" encoding="utf-8" standalone="no"?>
<!DOCTYPE svg PUBLIC "-//W3C//DTD SVG 1.1//EN"
  "http://www.w3.org/Graphics/SVG/1.1/DTD/svg11.dtd">
<!-- Created with matplotlib (http://matplotlib.org/) -->
<svg height="228.76pt" version="1.1" viewBox="0 0 230.2 228.76" width="230.2pt" xmlns="http://www.w3.org/2000/svg" xmlns:xlink="http://www.w3.org/1999/xlink">
 <defs>
  <style type="text/css">
*{stroke-linecap:butt;stroke-linejoin:round;}
  </style>
 </defs>
 <g id="figure_1">
  <g id="patch_1">
   <path d="M 0 228.76 
L 230.2 228.76 
L 230.2 0 
L 0 0 
z
" style="fill:#ffffff;"/>
  </g>
  <g id="axes_1">
   <g id="patch_2">
    <path d="M 3.5 225.26 
L 226.7 225.26 
L 226.7 3.5 
L 3.5 3.5 
z
" style="fill:#ffffff;"/>
   </g>
   <g id="matplotlib.axis_1">
    <g id="xtick_1"/>
    <g id="xtick_2"/>
    <g id="xtick_3"/>
    <g id="xtick_4"/>
    <g id="xtick_5"/>
    <g id="xtick_6"/>
   </g>
   <g id="matplotlib.axis_2">
    <g id="ytick_1">
     <g id="line2d_1">
      <path clip-path="url(#pf03dc313ad)" d="M 3.5 211.4 
L 226.7 211.4 
" style="fill:none;stroke:#b0b0b0;stroke-linecap:square;stroke-width:0.8;"/>
     </g>
    </g>
    <g id="ytick_2">
     <g id="line2d_2">
      <path clip-path="url(#pf03dc313ad)" d="M 3.5 183.68 
L 226.7 183.68 
" style="fill:none;stroke:#b0b0b0;stroke-linecap:square;stroke-width:0.8;"/>
     </g>
    </g>
    <g id="ytick_3">
     <g id="line2d_3">
      <path clip-path="url(#pf03dc313ad)" d="M 3.5 155.96 
L 226.7 155.96 
" style="fill:none;stroke:#b0b0b0;stroke-linecap:square;stroke-width:0.8;"/>
     </g>
    </g>
    <g id="ytick_4">
     <g id="line2d_4">
      <path clip-path="url(#pf03dc313ad)" d="M 3.5 128.24 
L 226.7 128.24 
" style="fill:none;stroke:#b0b0b0;stroke-linecap:square;stroke-width:0.8;"/>
     </g>
    </g>
    <g id="ytick_5">
     <g id="line2d_5">
      <path clip-path="url(#pf03dc313ad)" d="M 3.5 100.52 
L 226.7 100.52 
" style="fill:none;stroke:#b0b0b0;stroke-linecap:square;stroke-width:0.8;"/>
     </g>
    </g>
    <g id="ytick_6">
     <g id="line2d_6">
      <path clip-path="url(#pf03dc313ad)" d="M 3.5 72.8 
L 226.7 72.8 
" style="fill:none;stroke:#b0b0b0;stroke-linecap:square;stroke-width:0.8;"/>
     </g>
    </g>
    <g id="ytick_7">
     <g id="line2d_7">
      <path clip-path="url(#pf03dc313ad)" d="M 3.5 45.08 
L 226.7 45.08 
" style="fill:none;stroke:#b0b0b0;stroke-linecap:square;stroke-width:0.8;"/>
     </g>
    </g>
    <g id="ytick_8">
     <g id="line2d_8">
      <path clip-path="url(#pf03dc313ad)" d="M 3.5 17.36 
L 226.7 17.36 
" style="fill:none;stroke:#b0b0b0;stroke-linecap:square;stroke-width:0.8;"/>
     </g>
    </g>
   </g>
   <g id="line2d_9">
    <path clip-path="url(#pf03dc313ad)" d="M 7.315385 115.766 
L 8.078462 112.7168 
L 8.46 111.4694 
L 8.841538 111.0536 
L 9.223077 112.5782 
L 9.604615 106.72928 
L 9.986154 89.34884 
L 10.367692 60.76952 
L 10.749231 41.14376 
L 11.512308 27.39464 
L 11.893846 33.79796 
L 12.275385 38.2886 
L 12.656923 34.07516 
L 13.038462 40.81112 
L 13.801538 41.08832 
L 14.183077 38.34404 
L 14.564615 40.03496 
L 14.946154 37.23524 
L 15.327692 35.82152 
L 15.709231 36.54224 
L 16.090769 36.12644 
L 16.472308 38.26088 
L 16.853846 39.75776 
L 17.235385 38.73212 
L 17.616923 39.64688 
L 17.998462 39.48056 
L 18.38 41.28236 
L 18.761538 39.2588 
L 19.143077 40.11812 
L 19.524615 43.63856 
L 19.906154 39.23108 
L 20.287692 43.25048 
L 20.669231 43.38908 
L 21.050769 42.05852 
L 21.432308 43.4168 
L 21.813846 45.96704 
L 22.195385 44.13752 
L 22.576923 44.6642 
L 22.958462 44.08208 
L 23.34 45.82844 
L 23.721538 45.93932 
L 24.103077 47.24216 
L 24.484615 50.98436 
L 24.866154 52.34264 
L 25.247692 54.2276 
L 26.392308 57.72032 
L 26.773846 60.1874 
L 27.155385 61.07444 
L 27.536923 64.81664 
L 28.3 66.89564 
L 28.681538 68.7806 
L 29.063077 72.82772 
L 29.444615 72.19016 
L 30.207692 78.23312 
L 30.589231 79.89632 
L 30.970769 82.19708 
L 31.733846 89.62604 
L 32.115385 111.7466 
L 32.496923 204.27596 
L 32.878462 205.41248 
L 33.641538 180.65852 
L 34.023077 184.98284 
L 34.404615 177.19352 
L 34.786154 180.6308 
L 35.167692 176.66684 
L 35.549231 175.39172 
L 35.930769 178.99532 
L 36.312308 181.29608 
L 36.693846 175.89068 
L 37.075385 176.97176 
L 37.456923 177.05492 
L 37.838462 174.5324 
L 38.22 177.94196 
L 38.601538 177.35984 
L 38.983077 178.6904 
L 39.364615 176.55596 
L 39.746154 181.21292 
L 40.127692 177.83108 
L 40.509231 182.68208 
L 40.890769 179.05076 
L 41.272308 183.29192 
L 41.653846 178.829 
L 42.416923 182.18312 
L 42.798462 179.35568 
L 43.18 179.77148 
L 43.561538 177.443 
L 43.943077 178.30232 
L 44.324615 174.28292 
L 44.706154 178.21916 
L 45.087692 172.28708 
L 45.469231 173.22956 
L 45.850769 171.12284 
L 46.232308 173.31272 
L 46.613846 168.434 
L 46.995385 171.7604 
L 47.376923 171.70496 
L 47.758462 167.68556 
L 48.14 170.54072 
L 48.521538 170.40212 
L 48.903077 168.8498 
L 49.284615 166.46588 
L 49.666154 171.42776 
L 50.047692 163.74932 
L 50.429231 168.73892 
L 50.810769 164.33144 
L 51.192308 168.21224 
L 51.573846 163.13948 
L 51.955385 165.77288 
L 52.336923 161.55944 
L 52.718462 161.58716 
L 53.1 161.75348 
L 53.481538 160.5338 
L 53.863077 161.03276 
L 54.244615 157.54004 
L 54.626154 160.58924 
L 55.007692 155.32244 
L 55.389231 158.26076 
L 55.770769 156.26492 
L 56.152308 156.62528 
L 56.915385 158.26076 
L 57.296923 155.5442 
L 57.678462 154.87892 
L 58.06 155.07296 
L 58.441538 151.60796 
L 58.823077 154.96208 
L 59.204615 153.54836 
L 59.586154 154.74032 
L 59.967692 151.82972 
L 60.349231 153.29888 
L 60.730769 150.22196 
L 61.112308 149.723 
L 61.493846 151.2476 
L 61.875385 151.71884 
L 62.256923 150.8318 
L 62.638462 149.25176 
L 63.02 153.188 
L 63.401538 148.64192 
L 63.783077 150.6932 
L 64.164615 150.02792 
L 64.546154 152.6336 
L 64.927692 148.22612 
L 65.309231 149.36264 
L 65.690769 150.99812 
L 66.072308 149.1686 
L 66.453846 151.41392 
L 66.835385 150.02792 
L 67.216923 153.27116 
L 67.598462 150.0002 
L 67.98 150.9704 
L 68.361538 147.5054 
L 68.743077 147.17276 
L 69.124615 147.7826 
L 69.506154 149.27948 
L 69.887692 148.53104 
L 70.269231 147.17276 
L 70.650769 148.7528 
L 71.032308 145.75904 
L 71.413846 146.84012 
L 71.795385 146.92328 
L 72.176923 146.34116 
L 72.558462 146.34116 
L 72.94 147.7826 
L 73.321538 144.62252 
L 73.703077 145.1492 
L 74.084615 145.45412 
L 74.466154 143.26424 
L 74.847692 145.92536 
L 75.229231 143.84636 
L 75.610769 146.6738 
L 75.992308 144.78884 
L 76.373846 145.8422 
L 76.755385 143.95724 
L 77.136923 143.04248 
L 77.518462 143.6246 
L 78.281538 143.12564 
L 78.663077 142.3772 
L 79.044615 142.70984 
L 79.426154 140.88032 
L 79.807692 142.46036 
L 80.189231 141.85052 
L 80.570769 142.15544 
L 80.952308 141.51788 
L 81.333846 142.07228 
L 82.096923 141.65648 
L 82.478462 142.48808 
L 82.86 141.8228 
L 83.241538 142.2386 
L 83.623077 142.01684 
L 84.004615 142.3772 
L 84.386154 141.407 
L 84.767692 141.98912 
L 85.149231 141.6842 
L 85.530769 141.85052 
L 85.912308 141.8228 
L 86.293846 141.98912 
L 86.675385 140.76944 
L 87.056923 141.07436 
L 87.438462 141.07436 
L 87.82 142.21088 
L 88.201538 142.07228 
L 88.583077 140.82488 
L 88.964615 141.04664 
L 89.346154 139.52204 
L 89.727692 140.5754 
L 90.109231 140.35364 
L 90.490769 140.4368 
L 90.872308 139.66064 
L 91.253846 139.24484 
L 91.635385 138.0806 
L 92.016923 137.47076 
L 92.398462 137.41532 
L 92.78 136.77776 
L 93.161538 137.63708 
L 93.543077 137.35988 
L 93.924615 137.69252 
L 95.069231 136.44512 
L 95.450769 136.72232 
L 96.213846 138.05288 
L 96.595385 136.52828 
L 96.976923 136.38968 
L 97.358462 136.52828 
L 97.74 136.02932 
L 98.121538 136.25108 
L 98.884615 137.02724 
L 99.266154 136.30652 
L 99.647692 137.19356 
L 100.029231 137.08268 
L 100.410769 137.41532 
L 100.792308 137.16584 
L 101.555385 139.71608 
L 102.318462 141.01892 
L 102.7 141.46244 
L 103.081538 141.15752 
L 103.463077 140.4368 
L 103.844615 142.29404 
L 104.226154 141.18524 
L 104.607692 141.46244 
L 104.989231 140.21504 
L 105.370769 141.51788 
L 106.515385 141.43472 
L 106.896923 139.8824 
L 107.278462 141.51788 
L 107.66 140.93576 
L 108.041538 141.73964 
L 108.423077 140.76944 
L 108.804615 140.24276 
L 109.186154 141.51788 
L 109.567692 141.76736 
L 111.093846 140.93576 
L 111.475385 141.32384 
L 111.856923 140.90804 
L 112.238462 141.5456 
L 112.62 140.35364 
L 113.001538 141.1298 
L 113.383077 141.43472 
L 113.764615 140.76944 
L 114.527692 140.60312 
L 114.909231 139.27256 
L 115.290769 139.0508 
L 116.053846 137.60936 
L 116.435385 138.2192 
L 116.816923 137.08268 
L 117.198462 138.02516 
L 117.58 136.99952 
L 117.961538 138.10832 
L 118.343077 137.35988 
L 118.724615 137.5262 
L 119.106154 137.47076 
L 119.487692 137.85884 
L 119.869231 137.63708 
L 120.250769 137.69252 
L 120.632308 137.91428 
L 121.013846 137.05496 
L 121.395385 137.63708 
L 121.776923 137.08268 
L 122.158462 137.63708 
L 122.54 136.80548 
L 122.921538 136.94408 
L 123.303077 136.556 
L 123.684615 136.8332 
L 124.829231 136.05704 
L 125.210769 135.00368 
L 125.592308 135.66896 
L 125.973846 134.58788 
L 126.355385 134.58788 
L 126.736923 133.70084 
L 127.118462 133.5068 
L 127.5 133.86716 
L 128.263077 132.64748 
L 129.026154 132.59204 
L 129.407692 132.59204 
L 129.789231 133.17416 
L 130.170769 132.56432 
L 130.552308 132.98012 
L 130.933846 132.34256 
L 131.315385 132.398 
L 131.696923 133.25732 
L 132.078462 132.61976 
L 132.46 132.75836 
L 132.841538 133.14644 
L 133.604615 130.70708 
L 133.986154 131.31692 
L 134.367692 130.26356 
L 134.749231 130.12496 
L 135.130769 130.29128 
L 135.512308 130.90112 
L 135.893846 130.20812 
L 136.275385 130.8734 
L 136.656923 130.67936 
L 137.038462 129.70916 
L 137.42 130.12496 
L 137.801538 130.06952 
L 138.183077 130.7348 
L 138.564615 131.03972 
L 139.327692 129.87548 
L 139.709231 130.20812 
L 140.472308 128.32316 
L 140.853846 128.26772 
L 141.235385 126.90944 
L 141.616923 127.04804 
L 141.998462 125.6066 
L 142.38 124.88588 
L 142.761538 123.30584 
L 143.143077 123.05636 
L 143.524615 121.78124 
L 144.669231 114.43544 
L 145.050769 113.63156 
L 145.432308 114.96212 
L 145.813846 113.99192 
L 146.195385 106.2026 
L 146.576923 86.71544 
L 147.34 36.81944 
L 147.721538 19.88252 
L 148.103077 15.08696 
L 148.484615 31.913 
L 148.866154 42.64064 
L 149.247692 43.86032 
L 149.629231 41.44868 
L 150.010769 41.14376 
L 150.392308 41.11604 
L 150.773846 42.25256 
L 151.155385 41.67044 
L 151.536923 39.61916 
L 152.3 30.63788 
L 152.681538 29.6954 
L 153.444615 24.7058 
L 153.826154 26.84024 
L 154.207692 24.983 
L 154.589231 22.32188 
L 154.970769 23.20892 
L 155.352308 17.2214 
L 155.733846 13.92272 
L 156.115385 16.30664 
L 156.496923 19.63304 
L 156.878462 18.27476 
L 157.26 13.22972 
L 157.641538 12.9248 
L 158.023077 12.03776 
L 158.404615 10.37456 
L 158.786154 11.15072 
L 159.167692 17.27684 
L 159.549231 15.58592 
L 159.930769 17.33228 
L 160.312308 10.31912 
L 160.693846 9.29348 
L 161.456923 11.5388 
L 161.838462 14.14448 
L 162.22 13.64552 
L 162.601538 16.61156 
L 162.983077 16.58384 
L 163.364615 6.60464 
L 163.746154 9.62612 
L 164.127692 31.19228 
L 164.509231 27.42236 
L 164.890769 26.14724 
L 165.272308 21.9338 
L 165.653846 23.4584 
L 166.035385 29.03012 
L 166.416923 32.41196 
L 166.798462 33.93656 
L 167.561538 35.90468 
L 167.943077 32.24564 
L 168.324615 35.1008 
L 168.706154 35.9324 
L 169.087692 43.1396 
L 169.469231 43.11188 
L 169.850769 45.60668 
L 170.232308 45.93932 
L 170.613846 47.18672 
L 170.995385 53.50688 
L 171.758462 60.35372 
L 172.14 60.6032 
L 172.521538 62.04464 
L 172.903077 61.76744 
L 173.284615 63.59696 
L 173.666154 67.36688 
L 174.047692 72.71684 
L 174.429231 75.93236 
L 174.810769 78.12224 
L 175.192308 82.05848 
L 175.573846 83.11184 
L 175.955385 193.16024 
L 176.336923 199.8962 
L 176.718462 192.71672 
L 177.1 177.74792 
L 177.481538 182.62664 
L 177.863077 176.94404 
L 178.244615 176.94404 
L 178.626154 175.39172 
L 179.007692 173.20184 
L 179.389231 176.14016 
L 179.770769 174.36608 
L 180.152308 176.8886 
L 180.533846 172.81376 
L 180.915385 177.1658 
L 181.296923 172.592 
L 181.678462 174.92048 
L 182.06 174.69872 
L 182.441538 176.72228 
L 182.823077 173.22956 
L 183.204615 173.81168 
L 183.586154 178.88444 
L 183.967692 172.81376 
L 184.349231 176.38964 
L 184.730769 172.84148 
L 185.112308 178.52408 
L 185.493846 173.17412 
L 185.875385 175.19768 
L 186.256923 172.75832 
L 186.638462 172.25936 
L 187.02 173.72852 
L 187.401538 171.899 
L 187.783077 173.0078 
L 188.164615 171.6218 
L 188.546154 175.05908 
L 188.927692 168.87752 
L 189.309231 169.29332 
L 189.690769 169.127 
L 190.072308 170.6516 
L 190.453846 168.40628 
L 190.835385 163.55528 
L 191.216923 166.10552 
L 191.598462 161.30996 
L 191.98 162.36332 
L 192.361538 159.12008 
L 192.743077 158.732 
L 193.124615 159.48044 
L 193.506154 158.8706 
L 194.269231 154.7126 
L 194.650769 155.46104 
L 195.032308 153.63152 
L 195.413846 154.574 
L 195.795385 153.4652 
L 196.176923 156.01544 
L 196.558462 151.69112 
L 196.94 153.27116 
L 197.321538 153.82556 
L 197.703077 150.58232 
L 198.084615 152.2178 
L 198.466154 150.9704 
L 198.847692 153.43748 
L 199.229231 150.11108 
L 199.610769 154.62944 
L 199.992308 148.72508 
L 200.373846 149.41808 
L 200.755385 148.1984 
L 201.136923 149.00228 
L 201.518462 147.56084 
L 201.9 148.22612 
L 202.281538 151.44164 
L 202.663077 146.78468 
L 203.044615 149.61212 
L 203.426154 147.06188 
L 203.807692 150.47144 
L 204.189231 147.28364 
L 204.570769 150.02792 
L 204.952308 148.30928 
L 205.333846 147.9212 
L 205.715385 149.08544 
L 206.096923 147.67172 
L 206.478462 148.58648 
L 206.86 148.0598 
L 207.241538 150.02792 
L 207.623077 145.78676 
L 208.004615 147.81032 
L 208.386154 147.58856 
L 208.767692 145.53728 
L 209.149231 148.03208 
L 209.530769 147.42224 
L 209.912308 148.22612 
L 210.293846 146.03624 
L 210.675385 147.72716 
L 211.056923 146.36888 
L 211.82 147.56084 
L 212.201538 151.02584 
L 212.583077 149.80616 
L 212.964615 151.46936 
L 213.346154 157.65092 
L 213.727692 153.68696 
L 214.109231 160.33976 
L 214.490769 158.4548 
L 214.872308 165.21848 
L 215.253846 160.17344 
L 215.635385 164.30372 
L 216.016923 161.86436 
L 216.398462 162.72368 
L 216.78 165.02444 
L 217.161538 166.27184 
L 217.543077 165.35708 
L 217.924615 165.2462 
L 218.306154 168.54488 
L 218.687692 163.27808 
L 219.069231 166.16096 
L 219.450769 166.9094 
L 219.832308 169.93088 
L 220.213846 165.68972 
L 220.976923 165.46796 
L 221.358462 164.16512 
L 221.74 166.10552 
L 222.121538 163.3058 
L 222.503077 163.27808 
L 222.884615 163.0286 
L 223.266154 163.27808 
L 223.647692 160.36748 
L 224.029231 160.64468 
L 224.410769 161.7812 
L 224.792308 158.4548 
L 225.173846 162.0584 
L 225.555385 160.00712 
L 225.936923 162.64052 
L 226.318462 158.14988 
L 226.318462 158.14988 
" style="fill:none;stroke:#00008b;stroke-linecap:square;stroke-width:1.35;"/>
   </g>
   <g id="patch_3">
    <path d="M 3.5 225.26 
L 3.5 3.5 
" style="fill:none;stroke:#000000;stroke-linecap:square;stroke-linejoin:miter;stroke-width:0.8;"/>
   </g>
   <g id="patch_4">
    <path d="M 226.7 225.26 
L 226.7 3.5 
" style="fill:none;stroke:#000000;stroke-linecap:square;stroke-linejoin:miter;stroke-width:0.8;"/>
   </g>
   <g id="patch_5">
    <path d="M 3.5 225.26 
L 226.7 225.26 
" style="fill:none;stroke:#000000;stroke-linecap:square;stroke-linejoin:miter;stroke-width:0.8;"/>
   </g>
   <g id="patch_6">
    <path d="M 3.5 3.5 
L 226.7 3.5 
" style="fill:none;stroke:#000000;stroke-linecap:square;stroke-linejoin:miter;stroke-width:0.8;"/>
   </g>
  </g>
 </g>
 <defs>
  <clipPath id="pf03dc313ad">
   <rect height="221.76" width="223.2" x="3.5" y="3.5"/>
  </clipPath>
 </defs>
</svg>
