<?xml version="1.0" encoding="utf-8" standalone="no"?>
<!DOCTYPE svg PUBLIC "-//W3C//DTD SVG 1.1//EN"
  "http://www.w3.org/Graphics/SVG/1.1/DTD/svg11.dtd">
<!-- Created with matplotlib (http://matplotlib.org/) -->
<svg height="228.76pt" version="1.1" viewBox="0 0 230.2 228.76" width="230.2pt" xmlns="http://www.w3.org/2000/svg" xmlns:xlink="http://www.w3.org/1999/xlink">
 <defs>
  <style type="text/css">
*{stroke-linecap:butt;stroke-linejoin:round;}
  </style>
 </defs>
 <g id="figure_1">
  <g id="patch_1">
   <path d="M 0 228.76 
L 230.2 228.76 
L 230.2 0 
L 0 0 
z
" style="fill:#ffffff;"/>
  </g>
  <g id="axes_1">
   <g id="patch_2">
    <path d="M 3.5 225.26 
L 226.7 225.26 
L 226.7 3.5 
L 3.5 3.5 
z
" style="fill:#ffffff;"/>
   </g>
   <g id="matplotlib.axis_1">
    <g id="xtick_1"/>
    <g id="xtick_2"/>
    <g id="xtick_3"/>
    <g id="xtick_4"/>
    <g id="xtick_5"/>
   </g>
   <g id="matplotlib.axis_2">
    <g id="ytick_1">
     <g id="line2d_1">
      <path clip-path="url(#p37b0ec1ea4)" d="M 3.5 195.909412 
L 226.7 195.909412 
" style="fill:none;stroke:#b0b0b0;stroke-linecap:square;stroke-width:0.8;"/>
     </g>
    </g>
    <g id="ytick_2">
     <g id="line2d_2">
      <path clip-path="url(#p37b0ec1ea4)" d="M 3.5 163.297647 
L 226.7 163.297647 
" style="fill:none;stroke:#b0b0b0;stroke-linecap:square;stroke-width:0.8;"/>
     </g>
    </g>
    <g id="ytick_3">
     <g id="line2d_3">
      <path clip-path="url(#p37b0ec1ea4)" d="M 3.5 130.685882 
L 226.7 130.685882 
" style="fill:none;stroke:#b0b0b0;stroke-linecap:square;stroke-width:0.8;"/>
     </g>
    </g>
    <g id="ytick_4">
     <g id="line2d_4">
      <path clip-path="url(#p37b0ec1ea4)" d="M 3.5 98.074118 
L 226.7 98.074118 
" style="fill:none;stroke:#b0b0b0;stroke-linecap:square;stroke-width:0.8;"/>
     </g>
    </g>
    <g id="ytick_5">
     <g id="line2d_5">
      <path clip-path="url(#p37b0ec1ea4)" d="M 3.5 65.462353 
L 226.7 65.462353 
" style="fill:none;stroke:#b0b0b0;stroke-linecap:square;stroke-width:0.8;"/>
     </g>
    </g>
    <g id="ytick_6">
     <g id="line2d_6">
      <path clip-path="url(#p37b0ec1ea4)" d="M 3.5 32.850588 
L 226.7 32.850588 
" style="fill:none;stroke:#b0b0b0;stroke-linecap:square;stroke-width:0.8;"/>
     </g>
    </g>
   </g>
   <g id="line2d_7">
    <path clip-path="url(#p37b0ec1ea4)" d="M 8.208861 115.195294 
L 8.679747 112.521129 
L 9.150633 114.510447 
L 9.621519 112.618965 
L 10.092405 103.128941 
L 10.563291 79.028847 
L 11.034177 47.949835 
L 11.975949 5.652376 
L 12.446835 11.652941 
L 13.388608 39.699059 
L 14.33038 37.220565 
L 14.801266 36.959671 
L 15.272152 38.622871 
L 15.743038 38.622871 
L 16.213924 39.275106 
L 16.68481 40.220847 
L 17.626582 35.850871 
L 18.097468 38.166306 
L 18.568354 36.535718 
L 19.039241 38.818541 
L 19.510127 39.144659 
L 19.981013 42.373224 
L 20.451899 40.905694 
L 21.393671 43.482024 
L 21.864557 42.666729 
L 22.335443 42.242776 
L 23.277215 44.688659 
L 23.748101 46.710588 
L 24.689873 44.949553 
L 25.160759 46.090965 
L 25.631646 46.482306 
L 26.102532 43.579859 
L 26.573418 45.830071 
L 27.044304 49.417365 
L 27.51519 48.830353 
L 27.986076 50.884894 
L 28.456962 51.569741 
L 28.927848 53.265553 
L 29.398734 47.428047 
L 29.86962 49.482588 
L 30.340506 49.613035 
L 30.811392 50.265271 
L 31.282278 54.667859 
L 31.753165 56.885459 
L 32.224051 58.124706 
L 32.694937 53.819953 
L 33.165823 54.863529 
L 33.636709 56.787624 
L 34.107595 56.755012 
L 34.578481 65.560188 
L 35.049367 65.234071 
L 35.520253 67.516894 
L 35.991139 63.407812 
L 36.462025 63.668706 
L 36.932911 64.516612 
L 37.403797 61.451106 
L 37.874684 69.049647 
L 38.34557 70.712847 
L 38.816456 75.995953 
L 39.287342 74.658871 
L 39.758228 75.865506 
L 40.229114 78.474447 
L 40.7 76.028565 
L 41.170886 81.833459 
L 41.641772 85.812094 
L 42.112658 205.725553 
L 42.583544 220.857412 
L 43.05443 208.138824 
L 43.525316 188.897882 
L 43.996203 186.941176 
L 44.467089 190.593694 
L 44.937975 187.039012 
L 45.408861 184.364847 
L 45.879747 186.680282 
L 46.350633 185.3432 
L 46.821519 187.495576 
L 47.292405 179.081741 
L 47.763291 182.245082 
L 48.234177 177.059812 
L 48.705063 176.407576 
L 49.175949 178.266447 
L 49.646835 178.462118 
L 50.117722 177.451153 
L 50.588608 173.015953 
L 51.059494 174.907435 
L 51.53038 171.841929 
L 52.001266 171.189694 
L 52.472152 172.233271 
L 53.413924 169.200376 
L 53.88481 168.319859 
L 54.355696 169.428659 
L 54.826582 164.732565 
L 55.297468 166.069647 
L 55.768354 166.395765 
L 56.239241 162.938918 
L 56.710127 165.417412 
L 57.181013 161.471388 
L 57.651899 164.406447 
L 58.122785 158.438494 
L 58.593671 160.9496 
L 59.064557 161.601835 
L 59.535443 158.699388 
L 60.006329 159.547294 
L 60.477215 156.286118 
L 60.948101 160.982212 
L 61.418987 155.764329 
L 61.889873 157.329694 
L 62.360759 159.612518 
L 62.831646 153.807624 
L 63.302532 157.949318 
L 63.773418 155.764329 
L 64.244304 159.449459 
L 64.71519 156.5144 
L 65.186076 156.449176 
L 65.656962 155.731718 
L 66.127848 153.122776 
L 66.598734 155.829553 
L 67.06962 153.188 
L 67.540506 152.470541 
L 68.011392 153.7424 
L 68.482278 153.253224 
L 68.953165 150.872565 
L 69.424051 151.720471 
L 69.894937 151.916141 
L 70.365823 148.883247 
L 70.836709 150.839953 
L 71.307595 150.220329 
L 71.778481 153.057553 
L 72.249367 148.165788 
L 72.720253 149.796376 
L 73.191139 152.959718 
L 73.662025 147.252659 
L 74.132911 151.850918 
L 74.603797 147.970118 
L 75.074684 151.557412 
L 75.54557 147.676612 
L 76.016456 149.241976 
L 76.487342 149.241976 
L 76.958228 148.491906 
L 77.429114 148.7528 
L 77.9 148.100565 
L 78.370886 148.133176 
L 78.841772 147.448329 
L 79.312658 147.904894 
L 79.783544 148.067953 
L 80.25443 148.459294 
L 80.725316 147.709224 
L 81.667089 148.165788 
L 82.137975 148.296235 
L 82.608861 149.046306 
L 83.079747 147.546165 
L 83.550633 148.231012 
L 84.021519 147.448329 
L 84.492405 147.644 
L 85.434177 148.361459 
L 86.375949 147.024376 
L 86.846835 147.513553 
L 87.317722 148.654965 
L 87.788608 147.546165 
L 88.259494 147.839671 
L 89.201266 148.7528 
L 89.672152 147.774447 
L 90.143038 148.459294 
L 90.613924 148.263624 
L 91.08481 146.5352 
L 91.555696 147.383106 
L 92.026582 146.437365 
L 92.497468 147.252659 
L 93.439241 146.306918 
L 93.910127 147.448329 
L 94.851899 145.719906 
L 95.322785 145.295953 
L 95.793671 145.132894 
L 96.264557 145.850353 
L 96.735443 146.013412 
L 97.206329 145.622071 
L 97.677215 145.687294 
L 98.148101 146.013412 
L 98.618987 144.937224 
L 99.089873 144.480659 
L 99.560759 144.382824 
L 100.031646 143.991482 
L 100.502532 144.545882 
L 100.973418 145.328565 
L 101.444304 144.969835 
L 101.91519 143.241412 
L 102.386076 145.459012 
L 102.856962 143.861035 
L 103.327848 145.165506 
L 103.798734 144.545882 
L 104.26962 145.589459 
L 104.740506 145.719906 
L 105.211392 145.556847 
L 105.682278 146.078635 
L 106.153165 146.404753 
L 106.624051 147.122212 
L 107.094937 146.828706 
L 107.565823 148.589741 
L 108.036709 147.578776 
L 108.507595 147.056988 
L 108.978481 149.176753 
L 109.449367 147.904894 
L 109.920253 147.448329 
L 111.332911 148.948471 
L 111.803797 148.785412 
L 112.274684 150.089882 
L 112.74557 149.437647 
L 113.216456 149.568094 
L 113.687342 150.416 
L 114.158228 150.905176 
L 114.629114 150.937788 
L 115.1 151.100847 
L 115.570886 152.013976 
L 116.041772 149.372424 
L 116.512658 151.818306 
L 116.983544 151.361741 
L 117.45443 151.394353 
L 117.925316 151.622635 
L 118.396203 151.557412 
L 118.867089 151.655247 
L 119.337975 150.350776 
L 119.808861 151.655247 
L 120.279747 151.557412 
L 120.750633 151.948753 
L 121.221519 151.883529 
L 121.692405 150.383388 
L 122.163291 150.155106 
L 122.634177 148.394071 
L 123.105063 148.981082 
L 123.575949 148.491906 
L 124.046835 146.698259 
L 124.517722 148.557129 
L 124.988608 149.665929 
L 125.459494 147.807059 
L 125.93038 148.133176 
L 126.872152 148.165788 
L 127.813924 147.807059 
L 128.28481 148.948471 
L 128.755696 148.654965 
L 129.226582 148.524518 
L 129.697468 148.720188 
L 130.639241 147.709224 
L 131.110127 147.546165 
L 131.581013 147.676612 
L 132.051899 147.480941 
L 132.522785 147.122212 
L 132.993671 148.459294 
L 133.464557 146.991765 
L 133.935443 149.046306 
L 134.406329 148.263624 
L 134.877215 149.209365 
L 135.348101 147.578776 
L 135.818987 148.067953 
L 136.289873 147.872282 
L 136.760759 147.970118 
L 137.702532 147.872282 
L 138.173418 147.383106 
L 138.644304 148.491906 
L 139.11519 147.546165 
L 139.586076 147.807059 
L 140.056962 147.415718 
L 140.527848 148.524518 
L 140.998734 147.676612 
L 141.46962 148.133176 
L 142.882278 148.1984 
L 143.353165 146.274306 
L 143.824051 148.1984 
L 144.294937 147.448329 
L 144.765823 147.741835 
L 145.236709 147.350494 
L 145.707595 147.709224 
L 146.178481 148.361459 
L 146.649367 147.872282 
L 147.120253 149.568094 
L 147.591139 147.644 
L 148.062025 147.970118 
L 148.532911 147.741835 
L 149.003797 148.426682 
L 149.474684 147.872282 
L 150.416456 148.622353 
L 150.887342 147.415718 
L 151.829114 145.882965 
L 152.3 144.382824 
L 152.770886 144.872 
L 153.241772 143.893647 
L 153.712658 143.502306 
L 154.183544 141.512988 
L 154.65443 141.219482 
L 155.125316 140.762918 
L 155.596203 140.143294 
L 156.067089 139.328 
L 156.537975 139.164941 
L 157.008861 138.447482 
L 157.479747 138.153976 
L 157.950633 138.186588 
L 158.421519 136.849506 
L 158.892405 137.1104 
L 159.363291 136.229882 
L 159.834177 138.349647 
L 160.305063 137.273459 
L 160.775949 136.947341 
L 161.246835 135.903765 
L 161.717722 134.012282 
L 162.188608 132.805647 
L 162.659494 132.805647 
L 163.13038 131.925129 
L 163.601266 131.827294 
L 164.072152 132.6752 
L 164.543038 133.001318 
L 165.013924 132.609976 
L 165.955696 132.577365 
L 166.426582 132.512141 
L 166.897468 133.620941 
L 167.368354 133.947059 
L 167.839241 136.947341 
L 168.310127 137.175624 
L 169.251899 138.480094 
L 169.722785 138.186588 
L 170.193671 139.915012 
L 170.664557 139.686729 
L 171.135443 140.828141 
L 171.606329 139.751953 
L 172.077215 140.567247 
L 172.548101 140.893365 
L 173.018987 140.665082 
L 173.489873 141.349929 
L 173.960759 140.697694 
L 174.902532 141.610824 
L 175.373418 141.480376 
L 175.844304 139.947624 
L 176.31519 141.676047 
L 176.786076 142.817459 
L 177.256962 141.643435 
L 177.727848 141.480376 
L 178.198734 141.871718 
L 178.66962 141.5456 
L 179.140506 141.839106 
L 179.611392 141.415153 
L 180.082278 142.393506 
L 180.553165 140.9912 
L 181.024051 141.839106 
L 181.494937 140.925976 
L 181.965823 142.165224 
L 182.436709 139.8824 
L 182.907595 139.686729 
L 183.378481 138.936659 
L 183.849367 137.143012 
L 184.320253 137.273459 
L 184.791139 133.620941 
L 185.732911 128.370447 
L 186.203797 124.652706 
L 188.087342 115.651859 
L 188.558228 114.543059 
L 189.029114 114.510447 
L 189.5 115.358353 
L 189.970886 113.890824 
L 190.441772 104.987812 
L 190.912658 83.170541 
L 191.85443 31.089553 
L 192.325316 15.435906 
L 192.796203 12.076894 
L 193.267089 29.100235 
L 193.737975 32.198353 
L 194.208861 40.938306 
L 194.679747 36.437882 
L 195.150633 39.275106 
L 195.621519 37.840188 
L 196.092405 42.340612 
L 196.563291 36.503106 
L 197.034177 39.568612 
L 197.505063 38.198918 
L 197.975949 36.242212 
L 198.446835 35.753035 
L 198.917722 36.731388 
L 199.388608 38.296753 
L 199.859494 37.938024 
L 200.801266 35.361694 
L 201.272152 39.503388 
L 201.743038 40.383906 
L 202.213924 40.775247 
L 202.68481 42.308 
L 203.155696 40.286071 
L 203.626582 42.210165 
L 204.097468 42.829788 
L 204.568354 39.601224 
L 205.039241 43.351576 
L 205.510127 43.221129 
L 205.981013 45.210447 
L 206.451899 43.351576 
L 206.922785 45.732235 
L 207.864557 40.025176 
L 208.335443 46.482306 
L 208.806329 44.492988 
L 209.277215 50.134824 
L 209.748101 52.613318 
L 210.218987 52.189365 
L 210.689873 52.026306 
L 211.160759 50.265271 
L 211.631646 50.558776 
L 212.573418 46.221412 
L 213.51519 55.678824 
L 213.986076 55.776659 
L 214.456962 57.146353 
L 214.927848 54.602635 
L 215.398734 50.982729 
L 215.86962 53.722118 
L 216.340506 53.656894 
L 216.811392 58.418212 
L 217.282278 58.222541 
L 218.224051 64.223106 
L 218.694937 62.005506 
L 219.165823 67.190776 
L 219.636709 66.538541 
L 220.107595 74.397976 
L 220.578481 76.354682 
L 221.049367 81.833459 
L 221.520253 85.290306 
L 221.991139 83.300988 
L 222.462025 87.7688 
L 222.932911 187.267294 
L 223.403797 229.564753 
L 223.874684 220.596518 
L 224.34557 199.888047 
L 224.816456 194.702776 
L 225.287342 192.941741 
L 225.758228 195.028894 
L 226.229114 191.180706 
L 226.229114 191.180706 
" style="fill:none;stroke:#00008b;stroke-linecap:square;stroke-width:1.35;"/>
   </g>
   <g id="patch_3">
    <path d="M 3.5 225.26 
L 3.5 3.5 
" style="fill:none;stroke:#000000;stroke-linecap:square;stroke-linejoin:miter;stroke-width:0.8;"/>
   </g>
   <g id="patch_4">
    <path d="M 226.7 225.26 
L 226.7 3.5 
" style="fill:none;stroke:#000000;stroke-linecap:square;stroke-linejoin:miter;stroke-width:0.8;"/>
   </g>
   <g id="patch_5">
    <path d="M 3.5 225.26 
L 226.7 225.26 
" style="fill:none;stroke:#000000;stroke-linecap:square;stroke-linejoin:miter;stroke-width:0.8;"/>
   </g>
   <g id="patch_6">
    <path d="M 3.5 3.5 
L 226.7 3.5 
" style="fill:none;stroke:#000000;stroke-linecap:square;stroke-linejoin:miter;stroke-width:0.8;"/>
   </g>
  </g>
 </g>
 <defs>
  <clipPath id="p37b0ec1ea4">
   <rect height="221.76" width="223.2" x="3.5" y="3.5"/>
  </clipPath>
 </defs>
</svg>
